<?xml version="1.0" encoding="UTF-8"?>
<!DOCTYPE svg  PUBLIC '-//W3C//DTD SVG 1.1//EN'  'http://www.w3.org/Graphics/SVG/1.1/DTD/svg11.dtd'>
<svg enable-background="new 0 0 612 612" version="1.1" fill="#0069d9" viewBox="0 0 612 612" xml:space="preserve" xmlns="http://www.w3.org/2000/svg">
			<path d="m306 561.07l-265.21-122.27c0.918 0.554-23.466-10.461-40.793-20.368 0 14.784 3.71 41.884 17.5 49.189l259.64 116.72c22.95 10.825 32.837 10.825 57.7 0l259.64-116.72c12.832-5.967 17.518-34.062 17.518-49.189-16.696 8.357-40.335 20.272-40.794 20.368l-265.21 122.27zm0-509.43c1.912 2.238 1.415 0.459 0 0zm-288.5 293.72l259.64 116.72c22.95 10.824 32.837 10.824 57.7 0l259.64-116.72c12.832-5.967 17.518-34.061 17.518-49.19-16.696 8.358-40.335 20.273-40.794 20.369l-265.21 122.27-265.21-122.27c0.918 0.555-23.466-10.462-40.793-20.369 0 14.784 3.71 41.885 17.5 49.19zm0-122.27l259.64 116.72c22.95 10.825 32.837 10.825 57.7 0l259.64-116.72c19.125-8.912 19.756-46.818 0-57.643l-259.64-137.09c-20.388-12.087-34.75-11.456-57.701 0l-259.64 137.09c-19.757 12.737-20.388 46.818 0 57.643zm288.5-171.46l265.21 142.63-265.21 111.77-265.21-111.77 265.21-142.63z"/>
</svg>
